<?xml version="1.0" standalone="no"?>
<!DOCTYPE svg PUBLIC "-//W3C//DTD SVG 20010904//EN"
 "http://www.w3.org/TR/2001/REC-SVG-20010904/DTD/svg10.dtd">
<svg version="1.0" xmlns="http://www.w3.org/2000/svg"
 width="150.000000pt" height="150.000000pt" viewBox="0 0 150.000000 150.000000"
 preserveAspectRatio="xMidYMid meet">
<metadata>
Created by potrace 1.11, written by Peter Selinger 2001-2013
</metadata>
<g transform="translate(0.000000,150.000000) scale(0.100000,-0.100000)"
fill="#000000" stroke="none">
<path d="M450 1300 c-10 -10 -28 -36 -39 -58 -11 -21 -53 -95 -95 -165 -42
-70 -76 -132 -76 -137 0 -6 -4 -10 -10 -10 -5 0 -10 -5 -10 -10 0 -6 -15 -34
-33 -63 -58 -93 -63 -106 -48 -129 7 -11 22 -37 33 -57 83 -147 273 -468 283
-476 10 -8 567 -13 631 -6 6 0 18 13 25 28 8 16 34 61 58 102 40 68 42 75 27
87 -12 9 -94 12 -310 12 -162 0 -299 2 -304 6 -9 5 -64 96 -118 191 -6 11 -25
44 -42 73 -18 29 -32 59 -32 67 0 8 14 38 31 67 16 29 33 61 36 71 3 9 9 17
14 17 5 0 9 5 9 11 0 5 11 26 25 46 13 20 22 40 19 45 -3 4 -1 8 4 8 5 0 17
16 28 35 10 19 23 35 29 36 5 1 141 2 302 3 183 0 296 5 302 11 12 12 3 55
-10 55 -5 0 -9 7 -9 15 0 8 -5 15 -11 15 -5 0 -7 5 -4 10 3 6 1 10 -4 10 -6 0
-11 5 -11 11 0 7 -12 31 -27 55 l-28 44 -307 0 c-293 0 -309 -1 -328 -20z"/>
<path d="M689 833 c-8 -16 -17 -30 -20 -33 -3 -3 -11 -15 -18 -28 -11 -20 -8
-30 17 -75 l29 -52 333 0 333 0 29 52 29 51 -31 56 -32 56 -327 0 -328 0 -14
-27z"/>
</g>
</svg>
